<svg width="68" height="73" viewBox="0 0 68 73" fill="none" xmlns="http://www.w3.org/2000/svg">
<path d="M67.7295 53.8499C67.5879 52.5193 66.945 51.2923 65.9321 50.4179C64.9192 49.5434 63.6115 49.0869 62.2743 49.1408L60.0161 44.736C60.2597 44.3892 60.4327 43.9977 60.5251 43.584C60.6174 43.1704 60.6271 42.7425 60.554 42.325C60.4809 41.9075 60.3266 41.5085 60.0993 41.1507C59.872 40.7929 59.5766 40.4835 59.2295 40.2399C58.8829 39.9963 58.4912 39.8234 58.0776 39.7311C57.664 39.6389 57.2362 39.6289 56.8186 39.702C56.4009 39.775 56.0021 39.9296 55.6443 40.1568C55.2865 40.3841 54.977 40.6796 54.7334 41.0264H47.8625V37.2002C49.386 37.0972 50.8138 36.4195 51.8566 35.3041C52.8994 34.1887 53.4795 32.7188 53.48 31.1918V18.6474C53.48 17.0485 52.8451 15.515 51.7145 14.3844C50.5837 13.2539 49.0503 12.6187 47.4514 12.6187H40.3875L41.6155 6.40738C42.3584 6.27838 43.0327 5.89337 43.5214 5.31912C44.0101 4.74488 44.2822 4.01767 44.2907 3.26371C44.2992 2.50975 44.0434 1.77662 43.5677 1.19155C43.0922 0.606484 42.4267 0.206431 41.6868 0.060787C40.9471 -0.0848574 40.1796 0.0331221 39.5177 0.394243C38.8558 0.755363 38.3412 1.33683 38.0633 2.03774C37.7853 2.73864 37.7616 3.51474 37.9961 4.23134C38.2306 4.94794 38.7086 5.55981 39.3472 5.96081L38.0329 12.6187H26.4171C25.6249 12.6187 24.8406 12.7748 24.1088 13.0781C23.3771 13.3814 22.7122 13.8259 22.1524 14.3862C21.5925 14.9466 21.1486 15.6118 20.8459 16.3438C20.5432 17.0758 20.3877 17.8603 20.3884 18.6525V31.1969C20.3887 32.7231 20.9684 34.1923 22.0102 35.3076C23.052 36.4229 24.4783 37.1011 26.001 37.2052V41.7724H16.9427C16.8243 41.0117 16.4382 40.3182 15.854 39.8167C15.2698 39.3153 14.5258 39.039 13.7559 39.0372C13.4113 39.0344 13.0685 39.0875 12.741 39.1945L7.57495 30.9939C8.59251 30.4831 9.41673 29.6558 9.92374 28.6364C10.4307 27.6169 10.5931 26.4604 10.3863 25.3408C10.3658 25.1854 10.3138 25.0358 10.2337 24.901C10.1536 24.7664 10.0469 24.6493 9.92013 24.5571C9.79337 24.4648 9.6492 24.3993 9.49635 24.3645C9.3435 24.3296 9.18523 24.3263 9.03101 24.3545C8.87684 24.3827 8.72998 24.4419 8.59936 24.5286C8.46879 24.6153 8.35715 24.7277 8.27129 24.8589C8.18542 24.99 8.12712 25.1373 8.09992 25.2916C8.07267 25.446 8.07708 25.6043 8.11291 25.7569C8.25358 26.528 8.08251 27.3234 7.63721 27.9685C7.19196 28.6136 6.50887 29.0556 5.73798 29.1975C4.96627 29.3367 4.17087 29.1643 3.52599 28.7182C2.88111 28.2722 2.43931 27.5887 2.29735 26.8175C2.24217 26.5153 2.06925 26.2474 1.81658 26.0728C1.56391 25.8982 1.25217 25.8311 0.950021 25.8863C0.647872 25.9415 0.380059 26.1144 0.205426 26.3671C0.0307938 26.6198 -0.0363361 26.9315 0.0188448 27.2336C0.242416 28.4447 0.882056 29.5395 1.82718 30.3289C2.7723 31.1184 3.96355 31.5528 5.195 31.5572L10.9293 40.6611C10.6457 41.1497 10.4969 41.7048 10.498 42.2698C10.4958 42.9616 10.7161 43.6357 11.1262 44.1929C11.5364 44.7501 12.1147 45.1608 12.7759 45.3643C13.4372 45.5679 14.1462 45.5536 14.7987 45.3235C15.4512 45.0934 16.0125 44.6598 16.3998 44.0865H25.9756V48.7856C25.9772 50.0144 26.3542 51.2131 27.0562 52.222C27.7582 53.2303 28.7516 54.0001 29.9034 54.4284V61.5329C29.9042 62.6381 30.3188 63.7023 31.0655 64.5168C31.8123 65.3313 32.8369 65.8362 33.9376 65.9326V69.1195C33.9376 69.4965 34.012 69.8705 34.1563 70.2186C34.3006 70.5673 34.5122 70.8839 34.7789 71.1508C35.0456 71.4173 35.3622 71.6289 35.7107 71.773C36.0592 71.9176 36.4327 71.9917 36.8099 71.9917C37.1871 71.9917 37.5606 71.9176 37.909 71.773C38.2576 71.6289 38.5741 71.4173 38.8408 71.1508C39.1076 70.8839 39.3191 70.5673 39.4635 70.2186C39.6078 69.8705 39.6822 69.4965 39.6822 69.1195V65.9326C40.7874 65.8423 41.8183 65.3399 42.5703 64.5249C43.3222 63.7099 43.7404 62.6417 43.7419 61.5329V54.4792C44.9415 54.0798 45.985 53.313 46.7246 52.2874C47.4641 51.2619 47.8622 50.0296 47.8625 48.7652V43.3049H54.2006C54.3183 44.0661 54.704 44.7602 55.2886 45.2618C55.8726 45.7634 56.6171 46.0395 57.3874 46.0402C57.6112 46.04 57.834 46.0161 58.0522 45.9691L59.9755 49.7193C59.3635 50.0534 58.8225 50.5032 58.382 51.0436C57.9446 51.581 57.6178 52.2001 57.4209 52.8649C57.224 53.5297 57.1611 54.2264 57.2352 54.9156C57.2687 55.1962 57.4042 55.454 57.6158 55.6413C57.8269 55.8285 58.0999 55.9315 58.382 55.9305H58.5089C58.8114 55.896 59.0879 55.7433 59.2782 55.5058C59.4685 55.2678 59.5568 54.9648 59.5238 54.6618C59.469 54.2686 59.4939 53.8682 59.5969 53.4845C59.6999 53.1014 59.8796 52.7421 60.1242 52.4295C60.3688 52.1169 60.6743 51.8566 61.0219 51.6643C61.369 51.4719 61.7516 51.3517 62.1469 51.3106C62.5417 51.269 62.9411 51.308 63.3207 51.4242C63.7003 51.5404 64.0529 51.7323 64.3569 51.9875C64.6609 52.2433 64.9106 52.5574 65.0907 52.9111C65.2709 53.2653 65.3779 53.652 65.4053 54.0478C65.415 54.2041 65.4561 54.3564 65.5261 54.4964C65.5961 54.636 65.6936 54.7603 65.8128 54.8613C65.9321 54.9623 66.0706 55.0379 66.2203 55.0841C66.3695 55.1297 66.5268 55.145 66.6821 55.1287C66.8379 55.112 66.9881 55.0643 67.1246 54.9881C67.2611 54.912 67.3809 54.8085 67.4763 54.6852C67.5717 54.5614 67.6412 54.4193 67.6803 54.2681C67.7194 54.1168 67.7275 53.959 67.7041 53.8042L67.7295 53.8499ZM13.7559 43.5333C13.509 43.5333 13.2677 43.4601 13.0623 43.3229C12.8571 43.1857 12.697 42.9908 12.6025 42.7627C12.508 42.5346 12.4834 42.2836 12.5315 42.0415C12.5797 41.7993 12.6986 41.5768 12.8732 41.4022C13.0477 41.2276 13.2701 41.1087 13.5123 41.0606C13.7545 41.0124 14.0055 41.0371 14.2336 41.1316C14.4617 41.2261 14.6567 41.3861 14.7939 41.5914C14.931 41.7967 15.0042 42.0381 15.0042 42.2849C15.0029 42.6156 14.8709 42.9324 14.6371 43.1662C14.4033 43.4 14.0866 43.532 13.7559 43.5333ZM30.2585 26.5384C30.2585 26.8884 30.1195 27.2239 29.8721 27.4713C29.6247 27.7188 29.2891 27.8578 28.9391 27.8578C28.5892 27.8578 28.2536 27.7188 28.0062 27.4713C27.7587 27.2239 27.6198 26.8884 27.6198 26.5384V20.667C27.6198 20.3171 27.7587 19.9815 28.0062 19.7341C28.2536 19.4867 28.5892 19.3477 28.9391 19.3477C29.2891 19.3477 29.6247 19.4867 29.8721 19.7341C30.1195 19.9815 30.2585 20.3171 30.2585 20.667V26.5384ZM41.0675 1.97214C41.3154 1.97214 41.5578 2.04564 41.7639 2.18337C41.9701 2.3211 42.1307 2.51687 42.2255 2.74591C42.3204 2.97494 42.3452 3.22694 42.2968 3.47009C42.2484 3.71323 42.1291 3.93658 41.9538 4.11188C41.7785 4.28717 41.5552 4.40654 41.3121 4.4549C41.0689 4.50327 40.8169 4.47844 40.5879 4.38357C40.3588 4.2887 40.163 4.12805 40.0253 3.92192C39.8876 3.71579 39.8141 3.47346 39.8141 3.22555C39.8121 3.05991 39.843 2.89553 39.9051 2.74197C39.9673 2.58841 40.0594 2.44878 40.176 2.33118C40.2927 2.21357 40.4316 2.12036 40.5847 2.05697C40.7377 1.99359 40.9018 1.96129 41.0675 1.96198V1.97214ZM36.6069 20.667C36.6069 20.3171 36.7459 19.9815 36.9934 19.7341C37.2408 19.4867 37.5764 19.3477 37.9263 19.3477C38.2763 19.3477 38.6118 19.4867 38.8593 19.7341C39.1067 19.9815 39.2457 20.3171 39.2457 20.667V26.5384C39.2457 26.8884 39.1067 27.2239 38.8593 27.4713C38.6118 27.7188 38.2763 27.8578 37.9263 27.8578C37.5764 27.8578 37.2408 27.7188 36.9934 27.4713C36.7459 27.2239 36.6069 26.8884 36.6069 26.5384V20.667ZM41.4329 61.5684C41.4317 62.0607 41.2586 62.5367 40.9436 62.9147C40.6286 63.2928 40.1913 63.549 39.7075 63.6389V60.5129C39.7075 59.7512 39.4049 59.021 38.8663 58.482C38.3276 57.9436 37.597 57.6407 36.8353 57.6407C36.0735 57.6407 35.3429 57.9436 34.8043 58.482C34.2657 59.021 33.963 59.7512 33.963 60.5129V63.6389C33.4797 63.549 33.0431 63.2928 32.7289 62.9147C32.4147 62.5361 32.2427 62.0601 32.2427 61.5684V54.8293H41.4329V61.5684ZM57.4026 44.0916C57.156 44.0916 56.9145 44.0183 56.7089 43.8812C56.5039 43.744 56.3441 43.549 56.2492 43.3209C56.1548 43.0928 56.1299 42.8418 56.1781 42.5996C56.2264 42.3575 56.3456 42.135 56.5202 41.9605C56.6947 41.7859 56.917 41.6669 57.1591 41.6188C57.4011 41.5706 57.6523 41.5953 57.8802 41.6898C58.1085 41.7843 58.3034 41.9443 58.4409 42.1496C58.5779 42.3549 58.651 42.5963 58.651 42.8432C58.6485 43.1725 58.5155 43.4874 58.2821 43.7194C58.0481 43.9513 57.732 44.0814 57.4026 44.0814V44.0916ZM2.52574 20.0073C2.47643 19.9677 2.43664 19.9175 2.40941 19.8604C2.38217 19.8033 2.36817 19.7408 2.3684 19.6775V13.2225C2.3684 13.0611 2.43254 12.9062 2.54674 12.792C2.66094 12.6778 2.81588 12.6136 2.97739 12.6136H5.72271C5.80943 12.6134 5.89514 12.632 5.97405 12.6679C6.05291 12.7038 6.1232 12.7563 6.17998 12.8218C6.23682 12.8872 6.27883 12.9641 6.30329 13.0473C6.3277 13.1305 6.33395 13.2179 6.32156 13.3037L5.91554 16.3485C5.91082 16.3891 5.91519 16.4302 5.92838 16.4688C5.94158 16.5074 5.96319 16.5426 5.99171 16.5718C6.02074 16.602 6.05672 16.6248 6.0965 16.638C6.13629 16.6513 6.17866 16.6547 6.22002 16.6479L9.16335 16.2267C9.23663 16.2176 9.31098 16.2287 9.37847 16.2587C9.44596 16.2888 9.50401 16.3366 9.54629 16.3972C9.58856 16.4577 9.61347 16.5287 9.61845 16.6024C9.62342 16.6761 9.6082 16.7498 9.5744 16.8154L4.89555 25.4879C4.87209 25.5258 4.83653 25.5547 4.79464 25.5698C4.75275 25.585 4.70701 25.5856 4.66474 25.5715C4.62248 25.5574 4.5862 25.5295 4.56179 25.4922C4.53737 25.4549 4.52624 25.4105 4.53019 25.3661L5.28629 19.6166L2.88094 20.124C2.81675 20.1329 2.75139 20.127 2.68984 20.1067C2.62829 20.0865 2.57219 20.0525 2.52574 20.0073Z" fill="#E9EDF1"/>
</svg>
