<?xml version="1.0" encoding="UTF-8"?>
<svg id="Layer_1" data-name="Layer 1" xmlns="http://www.w3.org/2000/svg" viewBox="0 0 299.69 257.14">
  <defs>
    <style>
      .cls-1 {
        fill: #e1ba3d;
      }
    </style>
  </defs>
  <g id="meem">
    <path class="cls-1" d="m255.94,60.37c-41.67,35.34-144.9,20.91-204.92,58.29C-4.91,163.35,18.93,257.14,18.93,257.14c0,0-10.23-25.34-13.43-42.43-3.28-17.5-23.59-122.51,42.42-149.85,41.66-15.58,98.16-11.73,98.16-11.73,0,0-1.92,2.43,16.53-27.25s12.43-26.96,19.29-21.73,17.2,7.69,28.93,10c11.76,2.32,18.68,2.33,30.65,1.72,11.97-.61,18.75-1.65,30.31-4.83,11.29-3.11,27.9-11.04,27.9-11.04,0,0-7.2,30.08-43.74,60.36-7.52,5.46,0,.01,0,.01Z"/>
  </g>
</svg>