<?xml version="1.0" encoding="UTF-8"?>
<svg id="Layer_1" data-name="Layer 1" xmlns="http://www.w3.org/2000/svg" viewBox="0 0 404.99 226.75">
  <defs>
    <style>
      .cls-1 {
        fill: #e1ba3d;
      }
    </style>
  </defs>
  <g id="meem">
    <path class="cls-1" d="m368.56,80.13c-24.81,21.04-185.76,11.07-282.89,55.37C19.65,165.6,0,226.75,0,226.75c0,0,1.61-47.17,23.43-84.97,27.74-48.06,81.24-58.48,101.05-62.94,68.72-15.46,141.54-22.75,150.75-33.22,23.09-26.24,12.43-26.96,19.29-21.73,3.18,2.42,37.38,11.93,62.13,5.91C385.29,22.85,404.77,0,404.77,0c0,0,5.33,57.15-36.21,80.12-29.18,16.14,0,0,0,0Z"/>
  </g>
</svg>