<?xml version="1.0" encoding="UTF-8"?>
<svg id="Layer_1" data-name="Layer 1" xmlns="http://www.w3.org/2000/svg" xmlns:xlink="http://www.w3.org/1999/xlink" viewBox="0 0 392.99 283.91">
  <defs>
    <style>
      .cls-1 {
        fill: url(#linear-gradient);
      }

      .cls-2 {
        fill: #00aeef;
        opacity: .7;
      }

      .cls-3 {
        fill: none;
        stroke: #e1ba3d;
        stroke-miterlimit: 10;
        stroke-width: .25px;
      }
    </style>
    <linearGradient id="linear-gradient" x1="22.61" y1="194.97" x2="384.59" y2="42.83" gradientUnits="userSpaceOnUse">
      <stop offset=".01" stop-color="#e1ba3f"/>
      <stop offset=".18" stop-color="#e4b23c"/>
      <stop offset=".51" stop-color="#e9aa3a"/>
      <stop offset=".53" stop-color="#e8ab3a"/>
      <stop offset=".76" stop-color="#e2b73f"/>
      <stop offset="1" stop-color="#e1bb41"/>
    </linearGradient>
  </defs>
  <g id="meem">
    <path class="cls-2" d="m349.04,60.6c-41.67,35.34-178.75,53.81-204.92,58.29-12.16,2.08-33.08,5.37-52.01,11.38-21.82,6.94-61.33,13.13-78.53,70.37-7.33,26.54,2.76,82.09,2.76,82.09,0,0-10.23-25.34-13.43-42.43C-.37,222.8.16,194.78.16,194.78c0,0,.88-17.25,3.44-27.94,2.43-10.15,17.3-50.27,47.53-66.57,30.23-16.3,52.35-25.52,89.89-35.18,37.54-9.66,98.16-11.73,98.16-11.73,0,0,9.1-17.27,16.53-27.25,6.77-9.1,19.29-21.73,19.29-21.73,0,0,17.2,7.69,28.93,10,11.76,2.32,18.68,2.33,30.65,1.72,11.97-.61,18.75-1.65,30.31-4.83,11.29-3.11,27.9-11.04,27.9-11.04,0,0-5.85,18.63-19.29,34.15-13.43,15.52-13.8,17.13-24.45,26.21Z"/>
    <path class="cls-3" d="m349.04,60.6c-41.67,35.34-178.75,53.81-204.92,58.29-12.16,2.08-33.08,5.37-52.01,11.38-21.82,6.94-61.33,13.13-78.53,70.37-7.33,26.54,2.76,82.09,2.76,82.09,0,0-10.23-25.34-13.43-42.43C-.37,222.8.16,194.78.16,194.78c0,0,.88-17.25,3.44-27.94,2.43-10.15,17.3-50.27,47.53-66.57,30.23-16.3,52.35-25.52,89.89-35.18,37.54-9.66,98.16-11.73,98.16-11.73,0,0,9.1-17.27,16.53-27.25,6.77-9.1,19.29-21.73,19.29-21.73,0,0,17.2,7.69,28.93,10,11.76,2.32,18.68,2.33,30.65,1.72,11.97-.61,18.75-1.65,30.31-4.83,11.29-3.11,27.9-11.04,27.9-11.04,0,0-5.85,18.63-19.29,34.15-13.43,15.52-13.8,17.13-24.45,26.21Z"/>
    <path class="cls-1" d="m349.04,60.6c-41.67,35.34-178.75,53.81-204.92,58.29-12.16,2.08-33.08,5.37-52.01,11.38-21.82,6.94-61.33,13.13-78.53,70.37-7.33,26.54,2.76,82.09,2.76,82.09,0,0-10.23-25.34-13.43-42.43C-.37,222.8.16,194.78.16,194.78c0,0,.88-17.25,3.44-27.94,2.43-10.15,17.3-50.27,47.53-66.57,30.23-16.3,52.35-25.52,89.89-35.18,37.54-9.66,98.16-11.73,98.16-11.73,0,0,9.1-17.27,16.53-27.25,6.77-9.1,19.29-21.73,19.29-21.73,0,0,17.2,7.69,28.93,10,11.76,2.32,18.68,2.33,30.65,1.72,11.97-.61,18.75-1.65,30.31-4.83,11.29-3.11,27.9-11.04,27.9-11.04,0,0-5.85,18.63-19.29,34.15-13.43,15.52-13.8,17.13-24.45,26.21Z"/>
  </g>
</svg>